# xmcd
#
# Track frame offsets: 
#        150
#        10606
#        24840
#        37187
#        51046
#        63967
#        78784
#        92677
#        105449
#        119342
#        129609
#        142249
#        155535
#        167672
#        181021
#        195407
#        208663
#        219852
#        233703
#        244389
#        258152
#        269564
#        278039
#        287759
#        299908
#
# Disc length: 4183 seconds
#
# Revision: 0
# Processed by: cddbd v1.5.2PL0 Copyright (c) Steve Scherf et al.
# Submitted via: ExactAudioCopy v0.95b3
#
DISCID=66105519
DTITLE=Dean Martin  - The Best Of Dean Martin Disc 1
DYEAR=1900
DGENRE=
TTITLE0=01 - Memories are Made of This
TTITLE1=02 - That's Amore
TTITLE2=03 - Sway
TTITLE3=04 - You Belong to Me
TTITLE4=05 - Standing on the Corner
TTITLE5=06 - Just one more Chance
TTITLE6=07 - When You're Smiling
TTITLE7=08 - Under the Bridges of Paris
TTITLE8=09 - Let me go Lover
TTITLE9=10 - Me 'n' You 'n' the Moon
TTITLE10=11 - Young and Foolish
TTITLE11=12 - In Napoli
TTITLE12=13 - You can't Love 'em All
TTITLE13=14 - Two Sleepy People
TTITLE14=15 - How do You Speak to an Angel
TTITLE15=16 - The Naughty Lady of Shady Lane
TTITLE16=17 - Innamorata
TTITLE17=18 - Money Burns a Hole in my Pocket
TTITLE18=19 - Long, Long Ago
TTITLE19=20 - There's my Lover
TTITLE20=21 - Pretty as a Picture
TTITLE21=22 - I Feel a Song Coming on
TTITLE22=23 - You and Your Beautiful Eyes
TTITLE23=24 - Vieni Su (Say You Love me too)
TTITLE24=25 - Bye, Bye Blackbird
EXTD=
EXTT0=
EXTT1=
EXTT2=
EXTT3=
EXTT4=
EXTT5=
EXTT6=
EXTT7=
EXTT8=
EXTT9=
EXTT10=
EXTT11=
EXTT12=
EXTT13=
EXTT14=
EXTT15=
EXTT16=
EXTT17=
EXTT18=
EXTT19=
EXTT20=
EXTT21=
EXTT22=
EXTT23=
EXTT24=
PLAYORDER=
